<mxfile host="app.diagrams.net" agent="Mozilla/5.0 (Windows NT 10.0; Win64; x64) AppleWebKit/537.36 (KHTML, like Gecko) Chrome/136.0.0.0 Safari/537.36" version="26.1.2">
  <diagram name="Side-1" id="-3PRWlpU1rRTFHz49cLO">
    <mxGraphModel dx="1802" dy="818" grid="1" gridSize="10" guides="1" tooltips="1" connect="1" arrows="1" fold="1" page="1" pageScale="1" pageWidth="827" pageHeight="1169" math="0" shadow="0">
      <root>
        <mxCell id="0" />
        <mxCell id="1" parent="0" />
        <mxCell id="XlwsSaz-xnGg_G7ShkxH-6" style="edgeStyle=orthogonalEdgeStyle;rounded=0;orthogonalLoop=1;jettySize=auto;html=1;exitX=1;exitY=0.5;exitDx=0;exitDy=0;entryX=0.5;entryY=0;entryDx=0;entryDy=0;" edge="1" parent="1" source="XlwsSaz-xnGg_G7ShkxH-1" target="XlwsSaz-xnGg_G7ShkxH-2">
          <mxGeometry relative="1" as="geometry" />
        </mxCell>
        <mxCell id="XlwsSaz-xnGg_G7ShkxH-1" value="&lt;font style=&quot;font-size: 18px;&quot;&gt;&lt;span style=&quot;color: rgb(220, 220, 170); background-color: rgb(31, 31, 31); font-family: Consolas, &amp;quot;Courier New&amp;quot;, monospace; white-space: pre;&quot;&gt;load_graph()&lt;/span&gt;&lt;/font&gt;&lt;div&gt;Implemented caching and local download.&lt;/div&gt;" style="rounded=1;whiteSpace=wrap;html=1;" vertex="1" parent="1">
          <mxGeometry x="220" y="50" width="150" height="140" as="geometry" />
        </mxCell>
        <mxCell id="XlwsSaz-xnGg_G7ShkxH-7" style="edgeStyle=orthogonalEdgeStyle;rounded=0;orthogonalLoop=1;jettySize=auto;html=1;exitX=1;exitY=0.5;exitDx=0;exitDy=0;entryX=0.5;entryY=0;entryDx=0;entryDy=0;" edge="1" parent="1" source="XlwsSaz-xnGg_G7ShkxH-2" target="XlwsSaz-xnGg_G7ShkxH-3">
          <mxGeometry relative="1" as="geometry" />
        </mxCell>
        <mxCell id="XlwsSaz-xnGg_G7ShkxH-2" value="&lt;font style=&quot;font-size: 18px;&quot;&gt;&lt;span style=&quot;color: rgb(220, 220, 170); background-color: rgb(31, 31, 31); font-family: Consolas, &amp;quot;Courier New&amp;quot;, monospace; white-space: pre;&quot;&gt;get_edge_data()&lt;/span&gt;&lt;/font&gt;&lt;div&gt;Encodes risk, length and travel time data to each edge in graph.&lt;/div&gt;" style="rounded=1;whiteSpace=wrap;html=1;" vertex="1" parent="1">
          <mxGeometry x="320" y="190" width="150" height="140" as="geometry" />
        </mxCell>
        <mxCell id="XlwsSaz-xnGg_G7ShkxH-8" style="edgeStyle=orthogonalEdgeStyle;rounded=0;orthogonalLoop=1;jettySize=auto;html=1;exitX=1;exitY=0.5;exitDx=0;exitDy=0;entryX=0.5;entryY=0;entryDx=0;entryDy=0;" edge="1" parent="1" source="XlwsSaz-xnGg_G7ShkxH-3" target="XlwsSaz-xnGg_G7ShkxH-5">
          <mxGeometry relative="1" as="geometry" />
        </mxCell>
        <mxCell id="XlwsSaz-xnGg_G7ShkxH-3" value="&lt;span style=&quot;color: rgb(220, 220, 170); background-color: rgb(31, 31, 31); font-family: Consolas, &amp;quot;Courier New&amp;quot;, monospace; white-space: pre;&quot;&gt;&lt;font style=&quot;font-size: 18px;&quot;&gt;path_finding()&lt;/font&gt;&lt;/span&gt;&lt;div&gt;Runs A* on graph.&lt;/div&gt;" style="rounded=1;whiteSpace=wrap;html=1;" vertex="1" parent="1">
          <mxGeometry x="420" y="330" width="144" height="140" as="geometry" />
        </mxCell>
        <mxCell id="XlwsSaz-xnGg_G7ShkxH-4" value="&lt;font style=&quot;font-size: 18px;&quot;&gt;&lt;span style=&quot;color: rgb(220, 220, 170); background-color: rgb(31, 31, 31); font-family: Consolas, &amp;quot;Courier New&amp;quot;, monospace; white-space: pre;&quot;&gt;VisualizeMap&lt;/span&gt;&lt;span style=&quot;color: rgb(220, 220, 170); background-color: rgb(31, 31, 31); font-family: Consolas, &amp;quot;Courier New&amp;quot;, monospace; white-space: pre;&quot;&gt;&lt;b style=&quot;&quot;&gt;()&lt;/b&gt;&lt;/span&gt;&lt;/font&gt;&lt;div&gt;Plots the given path edges on a folium map in a given color.&lt;/div&gt;" style="rounded=1;whiteSpace=wrap;html=1;" vertex="1" parent="1">
          <mxGeometry x="610" y="610" width="144" height="140" as="geometry" />
        </mxCell>
        <mxCell id="XlwsSaz-xnGg_G7ShkxH-9" style="edgeStyle=orthogonalEdgeStyle;rounded=0;orthogonalLoop=1;jettySize=auto;html=1;exitX=1;exitY=0.5;exitDx=0;exitDy=0;entryX=0.5;entryY=0;entryDx=0;entryDy=0;" edge="1" parent="1" source="XlwsSaz-xnGg_G7ShkxH-5" target="XlwsSaz-xnGg_G7ShkxH-4">
          <mxGeometry relative="1" as="geometry" />
        </mxCell>
        <mxCell id="XlwsSaz-xnGg_G7ShkxH-5" value="&lt;span style=&quot;color: rgb(220, 220, 170); background-color: rgb(31, 31, 31); font-family: Consolas, &amp;quot;Courier New&amp;quot;, monospace; white-space: pre;&quot;&gt;&lt;font style=&quot;font-size: 18px;&quot;&gt;plot_route()&lt;/font&gt;&lt;/span&gt;&lt;div&gt;Plots the given path edges on a folium map in a given color.&lt;/div&gt;" style="rounded=1;whiteSpace=wrap;html=1;" vertex="1" parent="1">
          <mxGeometry x="518" y="470" width="144" height="140" as="geometry" />
        </mxCell>
        <mxCell id="XlwsSaz-xnGg_G7ShkxH-11" style="edgeStyle=orthogonalEdgeStyle;rounded=0;orthogonalLoop=1;jettySize=auto;html=1;exitX=1;exitY=0.5;exitDx=0;exitDy=0;entryX=0;entryY=0.5;entryDx=0;entryDy=0;" edge="1" parent="1" source="XlwsSaz-xnGg_G7ShkxH-10" target="XlwsSaz-xnGg_G7ShkxH-2">
          <mxGeometry relative="1" as="geometry" />
        </mxCell>
        <mxCell id="XlwsSaz-xnGg_G7ShkxH-10" value="&lt;font style=&quot;font-size: 14px;&quot;&gt;&lt;span style=&quot;color: rgb(220, 220, 170); background-color: rgb(31, 31, 31); font-family: Consolas, &amp;quot;Courier New&amp;quot;, monospace; white-space: pre;&quot;&gt;parse_maxspeed()&lt;/span&gt;&lt;/font&gt;&lt;div&gt;&lt;font style=&quot;font-size: 10px;&quot;&gt;Encodes max speed data into the edge from different formats.&lt;/font&gt;&lt;/div&gt;" style="rounded=1;whiteSpace=wrap;html=1;" vertex="1" parent="1">
          <mxGeometry x="80" y="220" width="161" height="80" as="geometry" />
        </mxCell>
        <mxCell id="XlwsSaz-xnGg_G7ShkxH-13" style="edgeStyle=orthogonalEdgeStyle;rounded=0;orthogonalLoop=1;jettySize=auto;html=1;exitX=1;exitY=0.5;exitDx=0;exitDy=0;entryX=0;entryY=0.5;entryDx=0;entryDy=0;" edge="1" parent="1" source="XlwsSaz-xnGg_G7ShkxH-12" target="XlwsSaz-xnGg_G7ShkxH-5">
          <mxGeometry relative="1" as="geometry" />
        </mxCell>
        <mxCell id="XlwsSaz-xnGg_G7ShkxH-12" value="&lt;font style=&quot;font-size: 14px;&quot;&gt;&lt;span style=&quot;color: rgb(220, 220, 170); background-color: rgb(31, 31, 31); font-family: Consolas, &amp;quot;Courier New&amp;quot;, monospace; white-space: pre;&quot;&gt;risk_to_color()&lt;/span&gt;&lt;/font&gt;&lt;div&gt;&lt;font style=&quot;font-size: 10px;&quot;&gt;Encodes risk value from edge into a color for display on that road segment.&lt;/font&gt;&lt;/div&gt;" style="rounded=1;whiteSpace=wrap;html=1;" vertex="1" parent="1">
          <mxGeometry x="80" y="500" width="161" height="80" as="geometry" />
        </mxCell>
        <mxCell id="XlwsSaz-xnGg_G7ShkxH-15" style="edgeStyle=orthogonalEdgeStyle;rounded=0;orthogonalLoop=1;jettySize=auto;html=1;exitX=1;exitY=0.5;exitDx=0;exitDy=0;entryX=0;entryY=0.5;entryDx=0;entryDy=0;" edge="1" parent="1" source="XlwsSaz-xnGg_G7ShkxH-14" target="XlwsSaz-xnGg_G7ShkxH-4">
          <mxGeometry relative="1" as="geometry" />
        </mxCell>
        <mxCell id="XlwsSaz-xnGg_G7ShkxH-14" value="&lt;font style=&quot;font-size: 14px;&quot;&gt;&lt;span style=&quot;color: rgb(220, 220, 170); background-color: rgb(31, 31, 31); font-family: Consolas, &amp;quot;Courier New&amp;quot;, monospace; white-space: pre;&quot;&gt;city_overlay_helper()&lt;/span&gt;&lt;/font&gt;&lt;div&gt;&lt;span style=&quot;font-size: 10px;&quot;&gt;Helper function to display LA city under found path from origin to destination.&lt;/span&gt;&lt;/div&gt;" style="rounded=1;whiteSpace=wrap;html=1;" vertex="1" parent="1">
          <mxGeometry x="80" y="640" width="161" height="80" as="geometry" />
        </mxCell>
      </root>
    </mxGraphModel>
  </diagram>
</mxfile>
